<svg width="43" height="43" xmlns="http://www.w3.org/2000/svg" xmlns:xlink="http://www.w3.org/1999/xlink" xml:space="preserve" overflow="hidden"><g transform="translate(-158 -446)"><path d="M173.184 452.719 185.905 452.719 186.219 458.542 172.781 458.542 173.184 452.719ZM185.009 482.819C184.293 482.64 183.486 482.46 182.501 482.416 181.516 482.102 180.754 481.609 180.754 481.027L180.754 470.546C183.71 470.546 189.175 467.545 188.906 464.589L187.921 450.703 171.438 450.703 170.273 464.589C170.049 467.5 175.424 470.546 178.335 470.546L178.335 480.982C178.335 481.609 177.529 482.057 176.589 482.371 175.693 482.505 174.842 482.595 174.17 482.774L174.125 482.774C172.96 483.087 172.289 483.491 172.289 483.983 172.289 485.014 175.558 485.82 179.59 485.82 183.576 485.82 186.891 485.014 186.891 483.983 186.801 483.535 186.084 483.132 185.009 482.819Z" stroke="#e0b400
" stroke-width="0.447917" fill="#e0b400"/></g></svg>