<svg width="44" height="43" xmlns="http://www.w3.org/2000/svg" xmlns:xlink="http://www.w3.org/1999/xlink" xml:space="preserve" overflow="hidden"><g transform="translate(-20 -223)"><path d="M24.4562 13.1687 23.9188 4.03125 24.6354 4.03125 24.6354 3.58333C24.6354 2.77708 24.0979 2.10521 23.3813 1.88125 23.2917 1.83646 23.2021 1.79167 23.0677 1.79167L22.8438 1.79167 20.1562 1.79167 19.9323 1.79167C19.7979 1.79167 19.7083 1.83646 19.6187 1.88125 18.9021 2.10521 18.3646 2.77708 18.3646 3.58333L18.3646 4.03125 19.0812 4.03125 18.5438 13.1687C16.8417 14.0646 15.6771 15.8563 15.6771 17.9167L15.6771 39.4167C15.6771 40.4021 18.275 41.2083 21.5 41.2083 24.725 41.2083 27.3229 40.4021 27.3229 39.4167L27.3229 17.9167C27.3229 15.8563 26.1583 14.0646 24.4562 13.1687ZM25.5312 38.8344C24.9042 39.1031 23.4708 39.4167 21.5 39.4167 19.5292 39.4167 18.0958 39.1031 17.4688 38.8344L17.4688 31.3542 18.7677 31.3542C19.4396 32.7427 20.425 33.5938 21.5 33.5938 22.575 33.5938 23.6052 32.7427 24.2323 31.3542L25.5312 31.3542 25.5312 38.8344ZM25.5312 23.2917 24.2323 23.2917C23.5604 21.9031 22.575 21.0521 21.5 21.0521 20.425 21.0521 19.3948 21.9031 18.7677 23.2917L17.4688 23.2917 17.4688 17.9167C17.4688 16.5729 18.1854 15.3635 19.3948 14.7365L20.2906 14.2437 20.3354 13.2135 20.6938 7.16667 22.3062 7.16667 22.6646 13.2583 22.7094 14.2885 23.6052 14.7812C24.8146 15.3635 25.5312 16.5729 25.5312 17.9167L25.5312 23.2917Z" stroke="#c7D9e6" stroke-width="0.447917" fill="#c7D9e6" transform="matrix(1.02326 0 0 1 20 223)"/></g></svg>
