<svg width="43" height="44" xmlns="http://www.w3.org/2000/svg" xmlns:xlink="http://www.w3.org/1999/xlink" xml:space="preserve" overflow="hidden"><g transform="translate(-59 -485)"><path d="M30.4583 24.0979C29.3385 25.2625 27.726 25.9792 25.9792 25.9792 24.2323 25.9792 22.6198 25.2625 21.5 24.0979 20.3802 25.2625 18.7677 25.9792 17.0208 25.9792 15.274 25.9792 13.6615 25.2625 12.5417 24.0979 11.4219 25.2625 9.80937 25.9792 8.0625 25.9792 7.79375 25.9792 7.525 25.9344 7.21146 25.9344L10.75 37.1771 32.25 37.1771 35.7885 25.9344C35.475 25.9344 35.2062 25.9792 34.9375 25.9792 33.1906 25.9792 31.5781 25.2625 30.4583 24.0979Z" stroke="#143048" stroke-width="0.447917" fill="#143048" transform="matrix(1 0 0 1.02326 59 485)"/><path d="M30.6375 15.0052 28.7562 16.7969C28.3979 17.1552 27.8156 17.1104 27.5021 16.7521 27.3229 16.5729 27.2781 16.349 27.2781 16.125 27.2781 15.901 27.3677 15.6323 27.5469 15.4531L29.4281 13.6615C29.7865 13.3031 30.3688 13.3479 30.6823 13.7063 30.9958 14.0646 30.9958 14.6469 30.6375 15.0052ZM24.3667 11.0635C24.1875 11.2427 23.9635 11.2875 23.7396 11.2875 23.5156 11.2875 23.2469 11.1979 23.0677 11.0188L21.276 9.1375C20.9177 8.77917 20.9625 8.19687 21.3208 7.88333 21.6792 7.525 22.2615 7.56979 22.575 7.92813L24.3667 9.80937C24.725 10.1677 24.725 10.7052 24.3667 11.0635ZM19.4396 18.1406C19.0812 18.499 18.499 18.4542 18.1854 18.0958L16.3937 16.2146C16.0354 15.8563 16.0802 15.274 16.4385 14.9604 16.6177 14.7812 16.8417 14.7365 17.0656 14.7365 17.2896 14.7365 17.5583 14.826 17.7375 15.0052L19.5292 16.8865C19.7979 17.2 19.7979 17.7823 19.4396 18.1406ZM14.6021 11.8698 12.7208 13.6615C12.3625 14.0198 11.7802 13.975 11.4667 13.6167 11.1083 13.2583 11.1531 12.676 11.5115 12.3625L13.3927 10.5708C13.751 10.2125 14.3333 10.2573 14.6469 10.6156 14.826 10.7948 14.8708 11.0188 14.8708 11.2427 14.8708 11.4219 14.7812 11.6906 14.6021 11.8698ZM36.0573 15.3635C34.176 9.31667 28.3531 4.92708 21.5 4.92708 14.6469 4.92708 8.82396 9.31667 6.94271 15.3635 5.01667 15.8563 3.58333 17.6031 3.58333 19.7083 3.58333 22.1719 5.59896 24.1875 8.0625 24.1875 10.526 24.1875 12.5417 22.1719 12.5417 19.7083 12.5417 22.1719 14.5573 24.1875 17.0208 24.1875 19.4844 24.1875 21.5 22.1719 21.5 19.7083 21.5 22.1719 23.5156 24.1875 25.9792 24.1875 28.4427 24.1875 30.4583 22.1719 30.4583 19.7083 30.4583 22.1719 32.474 24.1875 34.9375 24.1875 37.401 24.1875 39.4167 22.1719 39.4167 19.7083 39.4167 17.6031 37.9833 15.8563 36.0573 15.3635Z" stroke="#143048" stroke-width="0.447917" fill="#143048" transform="matrix(1 0 0 1.02326 59 485)"/></g></svg>