<svg width="43" height="43" xmlns="http://www.w3.org/2000/svg" xmlns:xlink="http://www.w3.org/1999/xlink" xml:space="preserve" overflow="hidden"><g transform="translate(-62 -275)"><path d="M86.1875 296.142C85.8359 295.993 85.4595 295.912 85.078 295.903 84.403 295.903 83.9479 296.231 83.9479 296.814 83.9479 297.679 84.9508 298.782 86.1875 299.277 86.5391 299.426 86.9155 299.506 87.297 299.515 87.972 299.515 88.4271 299.188 88.4271 298.605 88.4271 297.739 87.4242 296.637 86.1875 296.142Z" stroke="#9fb6c8" stroke-width="0.447917" fill="#9fb6c8"/><path d="M79.0208 294.619C79.0208 293.629 77.8177 292.346 76.3333 291.752 75.8958 291.567 75.4273 291.466 74.9524 291.454 74.1699 291.454 73.6458 291.816 73.6458 292.469 73.6458 293.458 74.8489 294.741 76.3333 295.335 76.7709 295.52 77.2393 295.621 77.7143 295.633 78.4968 295.633 79.0208 295.272 79.0208 294.619Z" stroke="#9fb6c8" stroke-width="0.447917" fill="#9fb6c8"/><path d="M81.0365 298.56C80.4896 298.329 79.9042 298.203 79.3106 298.188 78.3319 298.188 77.6771 298.64 77.6771 299.456 77.6771 300.693 79.1812 302.297 81.0365 303.04 81.5833 303.271 82.1687 303.397 82.7623 303.412 83.741 303.412 84.3958 302.96 84.3958 302.144 84.3958 300.907 82.8917 299.303 81.0365 298.56Z" stroke="#9fb6c8" stroke-width="0.447917" fill="#9fb6c8"/><path d="M92.891 287.427C92.6565 287.503 92.4115 287.542 92.1649 287.542 91.09 287.542 90.2188 286.84 90.2188 285.974 90.2856 285.199 90.881 284.573 91.6521 284.469 90.6089 281.983 89.7879 280.022 89.7708 279.972 88.0573 279.653 86.3179 279.494 84.575 279.498 78.9487 279.498 73.2638 281.09 69.1667 283.96L69.1667 302.555 96.0417 313.532 96.0417 306.35C95.9252 306.371 95.8071 306.382 95.6887 306.382 95.5818 306.382 95.4751 306.373 95.3698 306.354 94.2298 306.124 93.3962 305.142 93.3542 303.98 93.317 303.085 94.0127 302.329 94.9079 302.292 94.9433 302.291 94.9787 302.29 95.0141 302.291 95.1334 302.291 95.2524 302.302 95.3698 302.323 95.6052 302.368 95.8319 302.451 96.0417 302.567L96.0417 294.938C96.0417 294.938 94.4641 291.177 92.891 287.427ZM87.8672 282.391C87.9984 282.704 88.1583 283.086 88.3523 283.549 87.8209 284.246 87.5325 285.098 87.5312 285.974 87.5989 288.024 89.0875 289.749 91.1056 290.117 91.7014 291.537 92.2621 292.873 92.698 293.911L71.8837 285.41C75.3555 283.376 79.9879 282.185 84.5754 282.185 85.6759 282.184 86.7754 282.253 87.8672 282.391ZM90.6667 303.98C90.6875 305.848 91.7151 307.559 93.3542 308.454L93.3542 309.529 71.8542 300.75 71.8542 288.303 93.3542 297.082 93.3542 299.921C91.7096 300.593 90.6437 302.203 90.6667 303.98Z" stroke="#9fb6c8" stroke-width="0.447917" fill="#9fb6c8"/></g></svg>