<svg width="43" height="44" xmlns="http://www.w3.org/2000/svg" xmlns:xlink="http://www.w3.org/1999/xlink" xml:space="preserve" overflow="hidden"><g transform="translate(-25 -416)"><path d="M14.8216 31.1078C8.10281 38.1715 3.46687 38.2745 3.26979 38.2745L3.26979 36.0349C3.3101 36.0349 7.30104 35.8512 13.2225 29.5759L13.2225 29.5759 13.2449 29.5759 27.0094 15.7532C27.4397 15.309 28.1486 15.2977 28.5928 15.7281 29.037 16.1583 29.0483 16.8672 28.618 17.3114 28.609 17.3208 28.5998 17.3299 28.5905 17.3389Z" stroke="#143048" stroke-width="0.447917" fill="#143048" transform="matrix(1 0 0 1.02326 25 416)"/><path d="M35.8781 13.2225C38.1491 10.9471 37.9341 6.40969 37.9341 6.40969 37.9341 6.40969 33.4011 6.19469 31.1257 8.4701 28.8503 10.7455 29.3833 14.9604 29.3833 14.9604 29.3833 14.9604 33.5938 15.4934 35.8781 13.2225Z" stroke="#143048" stroke-width="0.447917" fill="#143048" transform="matrix(1 0 0 1.02326 25 416)"/><path d="M27.1796 23.4708C23.9635 23.4081 20.846 26.7048 20.846 26.7048 20.846 26.7048 23.8336 30.1269 27.0497 30.1896 30.2657 30.2523 32.9353 26.9467 32.9353 26.9467 32.9353 26.9467 30.3956 23.5335 27.1796 23.4708Z" stroke="#143048" stroke-width="0.447917" fill="#143048" transform="matrix(1 0 0 1.02326 25 416)"/><path d="M20.846 29.8044C17.63 29.7417 14.508 33.0428 14.508 33.0428 14.508 33.0428 17.5001 36.4604 20.7117 36.5231 23.9232 36.5858 26.6018 33.2802 26.6018 33.2802 26.6018 33.2802 24.0621 29.8671 20.846 29.8044Z" stroke="#143048" stroke-width="0.447917" fill="#143048" transform="matrix(1 0 0 1.02326 25 416)"/><path d="M33.5131 17.1373C30.3016 17.0746 27.1796 20.3713 27.1796 20.3713 27.1796 20.3713 30.1672 23.7889 33.3832 23.856 36.5993 23.9232 39.2689 20.6042 39.2689 20.6042 39.2689 20.6042 36.7292 17.2 33.5131 17.1373Z" stroke="#143048" stroke-width="0.447917" fill="#143048" transform="matrix(1 0 0 1.02326 25 416)"/><path d="M17.63 23.4932C17.63 23.4932 20.9311 20.3578 20.864 17.1552 20.7968 13.9526 17.3926 11.3995 17.3926 11.3995 17.3926 11.3995 14.0825 14.087 14.1497 17.2896 14.2169 20.4922 17.63 23.4932 17.63 23.4932Z" stroke="#143048" stroke-width="0.447917" fill="#143048" transform="matrix(1 0 0 1.02326 25 416)"/><path d="M11.2965 29.8268C11.2965 29.8268 14.5931 26.6914 14.5304 23.4932 14.4677 20.2951 11.0591 17.7375 11.0591 17.7375 11.0591 17.7375 7.74896 20.425 7.81167 23.6231 7.87437 26.8212 11.2965 29.8268 11.2965 29.8268Z" stroke="#143048" stroke-width="0.447917" fill="#143048" transform="matrix(1 0 0 1.02326 25 416)"/><path d="M23.9635 17.1597C23.9635 17.1597 27.2647 14.0243 27.202 10.8217 27.1393 7.61906 23.7396 5.06594 23.7396 5.06594 23.7396 5.06594 20.434 7.75344 20.4967 10.956 20.5594 14.1586 23.9635 17.1597 23.9635 17.1597Z" stroke="#143048" stroke-width="0.447917" fill="#143048" transform="matrix(1 0 0 1.02326 25 416)"/></g></svg>