<svg width="43" height="43" xmlns="http://www.w3.org/2000/svg" xmlns:xlink="http://www.w3.org/1999/xlink" xml:space="preserve" overflow="hidden"><g transform="translate(-37 -579)"><path d="M73.9039 585.096C69.9548 581.15 63.5555 581.15 59.6064 585.096 57.2503 587.452 56.3052 594.055 54.9301 596.54 52.583 600.809 50.339 601.566 50.8989 603.259L48.0008 606.162C47.9202 606.068 47.8351 605.974 47.75 605.888 45.9219 604.054 42.9525 604.048 41.1178 605.876 39.283 607.705 39.2777 610.674 41.1058 612.509 41.9876 613.394 43.1861 613.89 44.4354 613.888 44.6798 613.888 44.9238 613.87 45.1655 613.834 45.1295 614.076 45.1115 614.32 45.1118 614.565 45.1038 617.152 47.1949 619.256 49.7824 619.264 52.37 619.272 54.4741 617.181 54.4821 614.594 54.486 613.338 53.9858 612.133 53.0936 611.25 53.0041 611.165 52.9145 611.08 52.8204 611.004L55.7229 608.115C57.4564 608.661 58.1865 606.359 62.5133 604.115 65.0575 602.793 71.5478 601.741 73.9039 599.389 77.8468 595.441 77.8468 589.045 73.9039 585.096ZM50.769 610.538C50.4188 610.887 50.4182 611.455 50.7677 611.805 50.8396 611.877 50.9234 611.936 51.0153 611.98 51.3151 612.118 51.5893 612.306 51.826 612.536 52.9555 613.666 52.9547 615.498 51.8242 616.628 50.6937 617.757 48.8615 617.756 47.7321 616.626 46.6033 615.496 46.6033 613.665 47.7321 612.536 48.0871 612.185 48.0911 611.614 47.741 611.259 47.391 610.904 46.8195 610.9 46.4645 611.25 45.2626 612.303 43.4345 612.183 42.3813 610.981 41.4273 609.892 41.4246 608.266 42.375 607.174 43.5072 606.048 45.3367 606.048 46.469 607.174 46.6982 607.41 46.8846 607.685 47.0199 607.985 47.23 608.433 47.7634 608.625 48.2114 608.415 48.3063 608.371 48.3928 608.31 48.4667 608.236L51.8708 604.831C52.1709 605.181 52.5382 605.575 52.9906 606.023 53.443 606.471 53.8282 606.838 54.1776 607.138Z" stroke="#e0b400" stroke-width="0.447917" fill="#e0b400"/></g></svg>
