<svg width="43" height="43" xmlns="http://www.w3.org/2000/svg" xmlns:xlink="http://www.w3.org/1999/xlink" xml:space="preserve" overflow="hidden"><g transform="translate(-129 -213)"><path d="M163.49 228.587C159.458 224.198 155.114 227.199 151.799 227.96 151.709 226.885 151.441 225.9 151.127 224.959 152.516 224.825 154.576 224.377 156.009 222.899 158.339 220.57 158.115 216.628 158.115 216.628 158.115 216.628 154.128 216.404 151.844 218.733 150.769 219.808 150.231 221.242 149.962 222.496 147.992 219.181 145.125 217.434 144.946 217.3L143.557 219.584C143.602 219.629 148.44 222.63 149.111 227.916 145.842 227.109 141.452 224.198 137.51 228.543 133.166 233.335 136.883 257.881 150.545 251.118 164.161 257.926 167.834 233.38 163.49 228.587Z" stroke="#e0b400" stroke-width="0.447917" fill="#e0b400"/></g></svg>