<svg width="44" height="43" xmlns="http://www.w3.org/2000/svg" xmlns:xlink="http://www.w3.org/1999/xlink" xml:space="preserve" overflow="hidden"><g transform="translate(-151 -342)"><path d="M30.9062 15.7667 30.9062 20.6042 29.9208 20.6042 23.6052 14.2437 21.5 14.6917 27.4125 20.6042 25.0385 20.6042 19.5292 15.1396 17.4688 15.5875 22.4854 20.6042 20.1115 20.6042 15.4979 15.9906 13.4375 16.4385 17.5583 20.5594 15.1844 20.5594 11.4667 16.8417 9.40625 17.2896 12.676 20.5594 8.19687 20.5594 8.0625 20.5594 1.83646 16.1698C2.10521 17.9615 2.50833 19.7531 3.13542 21.5 2.55312 23.2469 2.10521 24.9937 1.83646 26.8302L8.0625 22.4406 8.10729 22.3958 12.5865 22.3958 9.31667 25.6656 11.3771 26.1135 15.0948 22.3958 17.4688 22.3958 13.3479 26.5167 15.4083 26.9646 20.0667 22.3958 22.4406 22.3958 17.4688 27.4125 19.5292 27.8604 24.9937 22.3958 27.3677 22.3958 21.5 28.3083 23.5604 28.7562 29.9208 22.3958 30.9062 22.3958 30.9062 27.2333C35.9229 26.024 41.2083 23.0677 41.2083 21.5 41.2083 19.9323 35.9229 16.976 30.9062 15.7667ZM34.4896 20.6042C33.9969 20.6042 33.5938 20.201 33.5938 19.7083 33.5938 19.2156 33.9969 18.8125 34.4896 18.8125 34.9823 18.8125 35.3854 19.2156 35.3854 19.7083 35.3854 20.201 34.9823 20.6042 34.4896 20.6042L34.4896 20.6042Z" stroke="#e0b400" stroke-width="0.447917" fill="#e0b400" transform="matrix(1.02326 0 0 1 151 342)"/></g></svg>